<?xml version="1.0" standalone="no"?>
<!DOCTYPE svg PUBLIC "-//W3C//DTD SVG 20010904//EN"
 "http://www.w3.org/TR/2001/REC-SVG-20010904/DTD/svg10.dtd">
<svg version="1.0" xmlns="http://www.w3.org/2000/svg"
 width="240.000000pt" height="240.000000pt" viewBox="0 0 240.000000 240.000000"
 preserveAspectRatio="xMidYMid meet">

<g transform="translate(0.000000,240.000000) scale(0.100000,-0.100000)"
fill="#000000" stroke="none">
<path d="M1132 1715 c-16 -14 -32 -35 -36 -47 -3 -15 -25 -33 -61 -52 -111
-57 -151 -141 -166 -345 -16 -224 -28 -262 -112 -348 -58 -60 -67 -103 -28
-135 20 -16 42 -18 171 -18 l148 0 21 -35 c59 -100 203 -100 262 0 l21 35 148
0 c129 0 151 2 171 18 39 32 30 75 -28 135 -84 86 -96 124 -112 348 -12 164
-33 229 -95 292 -23 24 -61 52 -84 63 -27 11 -45 26 -48 41 -17 68 -116 95
-172 48z m103 -45 c4 -6 -10 -10 -35 -10 -25 0 -39 4 -35 10 3 6 19 10 35 10
16 0 32 -4 35 -10z m80 -89 c103 -46 144 -123 157 -295 18 -246 40 -318 121
-396 26 -25 47 -48 47 -52 0 -5 -198 -8 -440 -8 -242 0 -440 3 -440 8 0 4 21
27 46 51 80 78 107 160 119 365 7 129 21 190 56 240 25 37 76 75 123 93 49 18
165 15 211 -6z m-35 -820 c0 -18 -45 -41 -80 -41 -35 0 -80 23 -80 41 0 5 36
9 80 9 44 0 80 -4 80 -9z"/>
</g>
</svg>
